<svg width="506.00000000000006" height="220" xmlns="http://www.w3.org/2000/svg">

 <g>
  <title>background</title>
  <rect fill="none" id="canvas_background" height="222" width="508" y="-1" x="-1"/>
 </g>
 <g>
  <title>Layer 1</title>
  <g id="svg_1">
   <g id="svg_2">
    <path id="svg_3" d="m503.94319,108.853147l-494.933,0c-3.208,0 -6.144,1.801 -7.603,4.659c-1.459,2.859 -1.186,6.298 0.708,8.892l68.267,93.867c1.604,2.21 4.156,3.516 6.886,3.516c40.823,0 356.617,0 384.068,0c1.289,0 2.543,-0.299 3.695,-0.87c17.247528,-41.997841 21.121277,-57.020103 37.261587,-96.899608c0.008,-4.738 8.482671,-13.866145 1.650413,-13.164392zm-392.533,29.867c0,2.355 -1.911,4.267 -4.267,4.267l-8.533,0c-2.355,0 -4.267,-1.911 -4.267,-4.267l0,-8.533c0,-2.355 1.911,-4.267 4.267,-4.267l8.533,0c2.355,0 4.267,1.911 4.267,4.267l0,8.533zm34.133,0c0,2.355 -1.911,4.267 -4.267,4.267l-8.533,0c-2.355,0 -4.267,-1.911 -4.267,-4.267l0,-8.533c0,-2.355 1.911,-4.267 4.267,-4.267l8.533,0c2.355,0 4.267,1.911 4.267,4.267l0,8.533zm34.133,0c0,2.355 -1.911,4.267 -4.267,4.267l-8.533,0c-2.355,0 -4.267,-1.911 -4.267,-4.267l0,-8.533c0,-2.355 1.911,-4.267 4.267,-4.267l8.533,0c2.355,0 4.267,1.911 4.267,4.267l0,8.533zm34.134,0c0,2.355 -1.911,4.267 -4.267,4.267l-8.533,0c-2.355,0 -4.267,-1.911 -4.267,-4.267l0,-8.533c0,-2.355 1.911,-4.267 4.267,-4.267l8.533,0c2.355,0 4.267,1.911 4.267,4.267l0,8.533zm34.133,0c0,2.355 -1.911,4.267 -4.267,4.267l-8.533,0c-2.355,0 -4.267,-1.911 -4.267,-4.267l0,-8.533c0,-2.355 1.911,-4.267 4.267,-4.267l8.533,0c2.355,0 4.267,1.911 4.267,4.267l0,8.533zm34.133,0c0,2.355 -1.911,4.267 -4.267,4.267l-8.533,0c-2.355,0 -4.267,-1.911 -4.267,-4.267l0,-8.533c0,-2.355 1.911,-4.267 4.267,-4.267l8.533,0c2.355,0 4.267,1.911 4.267,4.267l0,8.533zm34.134,0c0,2.355 -1.911,4.267 -4.267,4.267l-8.533,0c-2.355,0 -4.267,-1.911 -4.267,-4.267l0,-8.533c0,-2.355 1.911,-4.267 4.267,-4.267l8.533,0c2.355,0 4.267,1.911 4.267,4.267l0,8.533zm34.133,0c0,2.355 -1.911,4.267 -4.267,4.267l-8.533,0c-2.355,0 -4.267,-1.911 -4.267,-4.267l0,-8.533c0,-2.355 1.911,-4.267 4.267,-4.267l8.533,0c2.355,0 4.267,1.911 4.267,4.267l0,8.533zm34.133,0c0,2.355 -1.911,4.267 -4.267,4.267l-8.533,0c-2.355,0 -4.267,-1.911 -4.267,-4.267l0,-8.533c0,-2.355 1.911,-4.267 4.267,-4.267l8.533,0c2.355,0 4.267,1.911 4.267,4.267l0,8.533zm34.134,0c0,2.355 -1.911,4.267 -4.267,4.267l-8.533,0c-2.355,0 -4.267,-1.911 -4.267,-4.267l0,-8.533c0,-2.355 1.911,-4.267 4.267,-4.267l8.533,0c2.355,0 4.267,1.911 4.267,4.267l0,8.533zm34.133,0c0,2.355 -1.911,4.267 -4.267,4.267l-8.533,0c-2.355,0 -4.267,-1.911 -4.267,-4.267l0,-8.533c0,-2.355 1.911,-4.267 4.267,-4.267l8.533,0c2.355,0 4.267,1.911 4.267,4.267l0,8.533z"/>
   </g>
  </g>
  <g id="svg_4">
   <g id="svg_5">
    <path id="svg_6" d="m391.830953,45.6891l-5.589,-14.353c-1.271,-3.277 -4.429,-5.436 -7.945,-5.436l-33.382,0l0,-21.333c0,-2.355 -1.911,-4.267 -4.267,-4.267l-8.533,0c-2.355,0 -4.267,1.911 -4.267,4.267l0,21.333l-42.667,0l0,-21.333c0,-2.355 -1.911,-4.267 -4.267,-4.267l-8.533,0c-2.355,0 -4.267,1.911 -4.267,4.267l0,21.333l-42.667,0l0,-21.333c0,-2.355 -1.911,-4.267 -4.267,-4.267l-8.533,0c-2.355,0 -4.267,1.911 -4.267,4.267l0,21.333l-35.396,0c-3.516,0 -6.673,2.159 -7.953,5.436l-5.589,14.345c-1.084,2.799 0.981,5.82 3.977,5.82l224.435,0c3.004,0 5.069,-3.021 3.977,-5.812z"/>
   </g>
  </g>
  <g id="svg_7">
   <g id="svg_8">
    <path id="svg_9" d="m448.693143,89.42748l-5.052,-14.234c-1.203,-3.405 -4.429,-5.675 -8.038,-5.675l-331.418,0c-3.61,0 -6.835,2.27 -8.038,5.675l-5.052,14.225c-0.99,2.782 1.067,5.7 4.011,5.7l349.568,0c2.944,0.001 5.009,-2.917 4.019,-5.691z"/>
   </g>
  </g>
  <g id="svg_10"/>
  <g id="svg_11"/>
  <g id="svg_12"/>
  <g id="svg_13"/>
  <g id="svg_14"/>
  <g id="svg_15"/>
  <g id="svg_16"/>
  <g id="svg_17"/>
  <g id="svg_18"/>
  <g id="svg_19"/>
  <g id="svg_20"/>
  <g id="svg_21"/>
  <g id="svg_22"/>
  <g id="svg_23"/>
  <g id="svg_24"/>
 </g>
</svg>